# xmcd CD database file
#
# Track frame offsets:
#	150
#	10382
#	31265
#	47095
#	77887
#	88937
#	115257
#	129800
#	147745
#	163700
#
# Disc length: 2330 seconds
#
# Revision: 11
# Processed by: cddbd v1.5.2PL0 Copyright (c) Steve Scherf et al.
# Submitted via: CDex 1.51
#
DISCID=8309180a
DTITLE=Stevie Ray Vaughan and Double Trouble - The Sky Is Crying
DYEAR=1991
DGENRE=Blues
TTITLE0=Boot Hill
TTITLE1=The Sky Is Crying
TTITLE2=Empty Arms
TTITLE3=Little Wing
TTITLE4=Wham
TTITLE5=May I Have A Talk With You
TTITLE6=Close To You
TTITLE7=Chitlins Con Carne
TTITLE8=So Excited
TTITLE9=Life By The Drop
EXTD=YEAR: 1991
EXTT0=
EXTT1=
EXTT2=
EXTT3=
EXTT4=
EXTT5=
EXTT6=
EXTT7=
EXTT8=
EXTT9=
PLAYORDER=
